<svg width="262" height="32" viewBox="0 0 262 32" fill="none" xmlns="http://www.w3.org/2000/svg">
<path d="M27.5195 26.0547V31.8984H0V26.0547H27.5195ZM2.85742 28.3613C2.48205 28.3615 2.17781 28.637 2.17773 28.9766C2.17773 29.3162 2.482 29.5917 2.85742 29.5918C3.23298 29.5918 3.53809 29.3163 3.53809 28.9766C3.53801 28.6369 3.23293 28.3613 2.85742 28.3613Z" fill="#6B63FF"/>
<path d="M33.83 23.871H0V18.0271L33.9575 13.8486L33.83 23.871Z" fill="#6B63FF"/>
<path d="M33.9252 11.5172L0 15.8417V9.99776L34 0L33.9252 11.5172Z" fill="#6B63FF"/>
<path d="M47.52 22.7892C46.0267 22.7892 44.8533 22.4759 44 21.8492C43.16 21.2092 42.72 20.3292 42.68 19.2092H45.18C45.22 19.5826 45.4267 19.9226 45.8 20.2292C46.1733 20.5359 46.76 20.6892 47.56 20.6892C48.2267 20.6892 48.7533 20.5692 49.14 20.3292C49.54 20.0892 49.74 19.7626 49.74 19.3492C49.74 18.9892 49.5867 18.7026 49.28 18.4892C48.9867 18.2759 48.48 18.1359 47.76 18.0692L46.8 17.9692C45.5867 17.8359 44.6533 17.4892 44 16.9292C43.3467 16.3692 43.02 15.6226 43.02 14.6892C43.02 13.9426 43.2067 13.3159 43.58 12.8092C43.9533 12.3026 44.4667 11.9226 45.12 11.6692C45.7867 11.4026 46.5467 11.2692 47.4 11.2692C48.7333 11.2692 49.8133 11.5626 50.64 12.1492C51.4667 12.7359 51.9 13.5959 51.94 14.7292H49.44C49.4133 14.3559 49.2267 14.0359 48.88 13.7692C48.5333 13.5026 48.0333 13.3692 47.38 13.3692C46.7933 13.3692 46.34 13.4826 46.02 13.7092C45.7 13.9359 45.54 14.2292 45.54 14.5892C45.54 14.9359 45.6667 15.2026 45.92 15.3892C46.1867 15.5759 46.6133 15.7026 47.2 15.7692L48.16 15.8692C49.44 16.0026 50.44 16.3559 51.16 16.9292C51.8933 17.5026 52.26 18.2759 52.26 19.2492C52.26 19.9692 52.06 20.5959 51.66 21.1292C51.2733 21.6492 50.7267 22.0559 50.02 22.3492C49.3133 22.6426 48.48 22.7892 47.52 22.7892ZM59.2766 22.5892C58.2766 22.5892 57.4499 22.4626 56.7966 22.2092C56.1566 21.9426 55.6766 21.5026 55.3566 20.8892C55.0366 20.2626 54.8766 19.4226 54.8766 18.3692L54.8966 8.52922H57.4966L57.4766 18.5492C57.4766 19.0826 57.6166 19.4959 57.8966 19.7892C58.1899 20.0692 58.6032 20.2092 59.1366 20.2092H60.8366V22.5892H59.2766ZM53.1566 13.6292V11.5892H60.8366V13.6292H53.1566ZM63.1698 22.4492V11.5892H65.3698V16.1892H65.3098C65.3098 14.6292 65.6432 13.4492 66.3098 12.6492C66.9765 11.8492 67.9565 11.4492 69.2498 11.4492H69.6498V13.8692H68.8898C67.9565 13.8692 67.2298 14.1226 66.7098 14.6292C66.2032 15.1226 65.9498 15.8426 65.9498 16.7892V22.4492H63.1698ZM76.2916 22.8292C75.3582 22.8292 74.5382 22.6692 73.8316 22.3492C73.1382 22.0292 72.5582 21.6026 72.0916 21.0692C71.6382 20.5226 71.2916 19.9159 71.0516 19.2492C70.8249 18.5826 70.7116 17.9026 70.7116 17.2092V16.8292C70.7116 16.1092 70.8249 15.4159 71.0516 14.7492C71.2916 14.0692 71.6382 13.4692 72.0916 12.9492C72.5582 12.4159 73.1316 11.9959 73.8116 11.6892C74.4916 11.3692 75.2782 11.2092 76.1716 11.2092C77.3449 11.2092 78.3249 11.4692 79.1116 11.9892C79.9116 12.4959 80.5116 13.1692 80.9116 14.0092C81.3116 14.8359 81.5116 15.7292 81.5116 16.6892V17.6892H71.8916V15.9892H79.7716L78.9116 16.8292C78.9116 16.1359 78.8116 15.5426 78.6116 15.0492C78.4116 14.5559 78.1049 14.1759 77.6916 13.9092C77.2916 13.6426 76.7849 13.5092 76.1716 13.5092C75.5582 13.5092 75.0382 13.6492 74.6116 13.9292C74.1849 14.2092 73.8582 14.6159 73.6316 15.1492C73.4182 15.6692 73.3116 16.2959 73.3116 17.0292C73.3116 17.7092 73.4182 18.3159 73.6316 18.8492C73.8449 19.3692 74.1716 19.7826 74.6116 20.0892C75.0516 20.3826 75.6116 20.5292 76.2916 20.5292C76.9716 20.5292 77.5249 20.3959 77.9516 20.1292C78.3782 19.8492 78.6516 19.5092 78.7716 19.1092H81.3316C81.1716 19.8559 80.8649 20.5092 80.4116 21.0692C79.9582 21.6292 79.3782 22.0626 78.6716 22.3692C77.9782 22.6759 77.1849 22.8292 76.2916 22.8292ZM88.5539 22.5892C87.5539 22.5892 86.7272 22.4626 86.0739 22.2092C85.4339 21.9426 84.9539 21.5026 84.6339 20.8892C84.3139 20.2626 84.1539 19.4226 84.1539 18.3692L84.1739 8.52922H86.7739L86.7539 18.5492C86.7539 19.0826 86.8939 19.4959 87.1739 19.7892C87.4672 20.0692 87.8806 20.2092 88.4139 20.2092H90.1139V22.5892H88.5539ZM82.4339 13.6292V11.5892H90.1139V13.6292H82.4339ZM97.1672 22.5892C96.1672 22.5892 95.3405 22.4626 94.6872 22.2092C94.0472 21.9426 93.5672 21.5026 93.2472 20.8892C92.9272 20.2626 92.7672 19.4226 92.7672 18.3692L92.7872 8.52922H95.3872L95.3672 18.5492C95.3672 19.0826 95.5072 19.4959 95.7872 19.7892C96.0805 20.0692 96.4939 20.2092 97.0272 20.2092H98.7272V22.5892H97.1672ZM91.0472 13.6292V11.5892H98.7272V13.6292H91.0472ZM105.822 22.8292C104.875 22.8292 104.055 22.6692 103.362 22.3492C102.682 22.0292 102.109 21.6026 101.642 21.0692C101.189 20.5359 100.849 19.9359 100.622 19.2692C100.395 18.6026 100.282 17.9226 100.282 17.2292V16.8492C100.282 16.1159 100.395 15.4159 100.622 14.7492C100.862 14.0692 101.215 13.4692 101.682 12.9492C102.149 12.4159 102.722 11.9959 103.402 11.6892C104.095 11.3692 104.895 11.2092 105.802 11.2092C106.749 11.2092 107.595 11.3959 108.342 11.7692C109.089 12.1292 109.682 12.6359 110.122 13.2892C110.575 13.9426 110.829 14.7026 110.882 15.5692H108.182C108.115 15.0092 107.875 14.5426 107.462 14.1692C107.062 13.7959 106.509 13.6092 105.802 13.6092C105.189 13.6092 104.675 13.7559 104.262 14.0492C103.862 14.3426 103.562 14.7492 103.362 15.2692C103.162 15.7759 103.062 16.3626 103.062 17.0292C103.062 17.6692 103.155 18.2492 103.342 18.7692C103.542 19.2892 103.842 19.6959 104.242 19.9892C104.655 20.2826 105.182 20.4292 105.822 20.4292C106.302 20.4292 106.715 20.3426 107.062 20.1692C107.409 19.9959 107.682 19.7559 107.882 19.4492C108.095 19.1426 108.229 18.7959 108.282 18.4092H110.982C110.929 19.2892 110.669 20.0626 110.202 20.7292C109.749 21.3826 109.142 21.8959 108.382 22.2692C107.635 22.6426 106.782 22.8292 105.822 22.8292ZM113.209 22.4492V7.84922H115.989V16.3692H115.509C115.509 15.2759 115.649 14.3492 115.929 13.5892C116.209 12.8292 116.622 12.2492 117.169 11.8492C117.729 11.4492 118.436 11.2492 119.289 11.2492H119.409C120.649 11.2492 121.589 11.6759 122.229 12.5292C122.869 13.3826 123.189 14.6226 123.189 16.2492V22.4492H120.409V15.9892C120.409 15.2959 120.209 14.7492 119.809 14.3492C119.422 13.9492 118.909 13.7492 118.269 13.7492C117.589 13.7492 117.036 13.9759 116.609 14.4292C116.196 14.8692 115.989 15.4492 115.989 16.1692V22.4492H113.209ZM135.314 22.8292C134.367 22.8292 133.547 22.6692 132.854 22.3492C132.174 22.0292 131.601 21.6026 131.134 21.0692C130.681 20.5359 130.341 19.9359 130.114 19.2692C129.887 18.6026 129.774 17.9226 129.774 17.2292V16.8492C129.774 16.1159 129.887 15.4159 130.114 14.7492C130.354 14.0692 130.707 13.4692 131.174 12.9492C131.641 12.4159 132.214 11.9959 132.894 11.6892C133.587 11.3692 134.387 11.2092 135.294 11.2092C136.241 11.2092 137.087 11.3959 137.834 11.7692C138.581 12.1292 139.174 12.6359 139.614 13.2892C140.067 13.9426 140.321 14.7026 140.374 15.5692H137.674C137.607 15.0092 137.367 14.5426 136.954 14.1692C136.554 13.7959 136.001 13.6092 135.294 13.6092C134.681 13.6092 134.167 13.7559 133.754 14.0492C133.354 14.3426 133.054 14.7492 132.854 15.2692C132.654 15.7759 132.554 16.3626 132.554 17.0292C132.554 17.6692 132.647 18.2492 132.834 18.7692C133.034 19.2892 133.334 19.6959 133.734 19.9892C134.147 20.2826 134.674 20.4292 135.314 20.4292C135.794 20.4292 136.207 20.3426 136.554 20.1692C136.901 19.9959 137.174 19.7559 137.374 19.4492C137.587 19.1426 137.721 18.7959 137.774 18.4092H140.474C140.421 19.2892 140.161 20.0626 139.694 20.7292C139.241 21.3826 138.634 21.8959 137.874 22.2692C137.127 22.6426 136.274 22.8292 135.314 22.8292ZM142.841 22.4492V7.84922H145.621V22.4492H142.841ZM141.481 9.92922V7.84922H145.621V9.92922H141.481ZM154.015 22.8292C153.055 22.8292 152.208 22.6759 151.475 22.3692C150.742 22.0626 150.122 21.6492 149.615 21.1292C149.108 20.5959 148.722 19.9959 148.455 19.3292C148.202 18.6626 148.075 17.9692 148.075 17.2492V16.8292C148.075 16.0826 148.208 15.3759 148.475 14.7092C148.755 14.0292 149.148 13.4292 149.655 12.9092C150.175 12.3759 150.802 11.9626 151.535 11.6692C152.268 11.3626 153.095 11.2092 154.015 11.2092C154.935 11.2092 155.762 11.3626 156.495 11.6692C157.228 11.9626 157.848 12.3759 158.355 12.9092C158.875 13.4292 159.268 14.0292 159.535 14.7092C159.802 15.3759 159.935 16.0826 159.935 16.8292V17.2492C159.935 17.9692 159.802 18.6626 159.535 19.3292C159.282 19.9959 158.902 20.5959 158.395 21.1292C157.888 21.6492 157.268 22.0626 156.535 22.3692C155.802 22.6759 154.962 22.8292 154.015 22.8292ZM154.015 20.4492C154.695 20.4492 155.268 20.3026 155.735 20.0092C156.202 19.7026 156.555 19.2959 156.795 18.7892C157.035 18.2692 157.155 17.6826 157.155 17.0292C157.155 16.3626 157.028 15.7759 156.775 15.2692C156.535 14.7492 156.175 14.3426 155.695 14.0492C155.228 13.7426 154.668 13.5892 154.015 13.5892C153.362 13.5892 152.795 13.7426 152.315 14.0492C151.848 14.3426 151.488 14.7492 151.235 15.2692C150.982 15.7759 150.855 16.3626 150.855 17.0292C150.855 17.6826 150.975 18.2692 151.215 18.7892C151.468 19.2959 151.828 19.7026 152.295 20.0092C152.762 20.3026 153.335 20.4492 154.015 20.4492ZM166.069 22.7892C164.816 22.7892 163.842 22.3759 163.149 21.5492C162.469 20.7226 162.129 19.4959 162.129 17.8692V11.5692H164.909V18.1092C164.909 18.7759 165.096 19.3092 165.469 19.7092C165.842 20.0959 166.349 20.2892 166.989 20.2892C167.629 20.2892 168.149 20.0826 168.549 19.6692C168.962 19.2559 169.169 18.6959 169.169 17.9892V11.5692H171.949V22.4492H169.749V17.8292H169.969C169.969 18.9226 169.829 19.8359 169.549 20.5692C169.269 21.3026 168.849 21.8559 168.289 22.2292C167.729 22.6026 167.029 22.7892 166.189 22.7892H166.069ZM179.643 22.8092C178.883 22.8092 178.183 22.6692 177.543 22.3892C176.903 22.1092 176.349 21.7159 175.883 21.2092C175.416 20.7026 175.056 20.1159 174.803 19.4492C174.549 18.7692 174.423 18.0359 174.423 17.2492V16.8292C174.423 16.0559 174.543 15.3292 174.783 14.6492C175.036 13.9692 175.383 13.3759 175.823 12.8692C176.276 12.3626 176.816 11.9692 177.443 11.6892C178.083 11.3959 178.789 11.2492 179.563 11.2492C180.416 11.2492 181.163 11.4359 181.803 11.8092C182.456 12.1692 182.976 12.7159 183.363 13.4492C183.749 14.1826 183.963 15.1026 184.003 16.2092L183.183 15.2492V7.84922H185.963V22.4492H183.763V17.8292H184.243C184.203 18.9359 183.976 19.8626 183.562 20.6092C183.149 21.3426 182.603 21.8959 181.923 22.2692C181.256 22.6292 180.496 22.8092 179.643 22.8092ZM180.263 20.4692C180.809 20.4692 181.309 20.3492 181.763 20.1092C182.216 19.8559 182.576 19.4959 182.843 19.0292C183.123 18.5492 183.263 17.9892 183.263 17.3492V16.5492C183.263 15.9092 183.123 15.3759 182.843 14.9492C182.563 14.5092 182.196 14.1759 181.743 13.9492C181.289 13.7092 180.796 13.5892 180.263 13.5892C179.663 13.5892 179.129 13.7359 178.663 14.0292C178.209 14.3092 177.849 14.7092 177.583 15.2292C177.329 15.7492 177.203 16.3559 177.203 17.0492C177.203 17.7426 177.336 18.3492 177.603 18.8692C177.869 19.3759 178.229 19.7692 178.683 20.0492C179.149 20.3292 179.676 20.4692 180.263 20.4692Z" fill="#0A0943"/>
<rect x="204" y="3.44922" width="58" height="25" rx="4" fill="#F0EFFF"/>
<path d="M214.483 20.5012V19.1882H216.745C217.3 19.1882 217.789 19.1016 218.214 18.9282C218.647 18.7462 219.016 18.4992 219.319 18.1872C219.631 17.8752 219.865 17.5069 220.021 17.0822C220.186 16.6489 220.268 16.1852 220.268 15.6912C220.268 15.1712 220.186 14.6989 220.021 14.2742C219.865 13.8496 219.631 13.4812 219.319 13.1692C219.016 12.8572 218.647 12.6189 218.214 12.4542C217.789 12.2896 217.3 12.2072 216.745 12.2072H214.483V10.9072H216.628C217.486 10.9072 218.231 11.0372 218.864 11.2972C219.497 11.5572 220.021 11.9126 220.437 12.3632C220.862 12.8052 221.178 13.3036 221.386 13.8582C221.603 14.4042 221.711 14.9676 221.711 15.5482V15.8342C221.711 16.3889 221.603 16.9436 221.386 17.4982C221.178 18.0529 220.862 18.5556 220.437 19.0062C220.021 19.4569 219.497 19.8209 218.864 20.0982C218.231 20.3669 217.486 20.5012 216.628 20.5012H214.483ZM213.326 20.5012V10.9072H214.743V20.5012H213.326ZM228.147 20.6832C227.297 20.6832 226.561 20.5316 225.937 20.2282C225.321 19.9249 224.81 19.5262 224.403 19.0322C224.004 18.5382 223.705 18.0096 223.506 17.4462C223.315 16.8829 223.22 16.3412 223.22 15.8212V15.5352C223.22 14.9632 223.319 14.3912 223.519 13.8192C223.718 13.2472 224.021 12.7272 224.429 12.2592C224.845 11.7826 225.36 11.4056 225.976 11.1282C226.591 10.8422 227.315 10.6992 228.147 10.6992C228.979 10.6992 229.702 10.8422 230.318 11.1282C230.933 11.4056 231.444 11.7826 231.852 12.2592C232.259 12.7272 232.562 13.2472 232.762 13.8192C232.97 14.3912 233.074 14.9632 233.074 15.5352V15.8212C233.074 16.3412 232.974 16.8829 232.775 17.4462C232.584 18.0096 232.285 18.5382 231.878 19.0322C231.479 19.5262 230.968 19.9249 230.344 20.2282C229.728 20.5316 228.996 20.6832 228.147 20.6832ZM228.147 19.3832C228.684 19.3832 229.169 19.2836 229.603 19.0842C230.036 18.8849 230.4 18.6119 230.695 18.2652C230.998 17.9186 231.228 17.5242 231.384 17.0822C231.548 16.6402 231.631 16.1766 231.631 15.6912C231.631 15.1799 231.548 14.7032 231.384 14.2612C231.228 13.8106 230.998 13.4162 230.695 13.0782C230.391 12.7402 230.023 12.4759 229.59 12.2852C229.165 12.0946 228.684 11.9992 228.147 11.9992C227.609 11.9992 227.124 12.0946 226.691 12.2852C226.257 12.4759 225.889 12.7402 225.586 13.0782C225.291 13.4162 225.061 13.8106 224.897 14.2612C224.741 14.7032 224.663 15.1799 224.663 15.6912C224.663 16.1766 224.741 16.6402 224.897 17.0822C225.061 17.5242 225.291 17.9186 225.586 18.2652C225.889 18.6119 226.257 18.8849 226.691 19.0842C227.124 19.2836 227.609 19.3832 228.147 19.3832ZM239.512 20.6832C238.645 20.6832 237.904 20.5316 237.289 20.2282C236.682 19.9249 236.188 19.5306 235.807 19.0452C235.434 18.5599 235.161 18.0356 234.988 17.4722C234.815 16.9002 234.728 16.3499 234.728 15.8212V15.5352C234.728 14.9632 234.815 14.3912 234.988 13.8192C235.17 13.2386 235.447 12.7142 235.82 12.2462C236.201 11.7782 236.691 11.4056 237.289 11.1282C237.887 10.8422 238.602 10.6992 239.434 10.6992C240.283 10.6992 241.016 10.8509 241.631 11.1542C242.246 11.4489 242.736 11.8649 243.1 12.4022C243.464 12.9309 243.685 13.5592 243.763 14.2872H242.32C242.251 13.7759 242.082 13.3512 241.813 13.0132C241.544 12.6752 241.206 12.4239 240.799 12.2592C240.392 12.0859 239.937 11.9992 239.434 11.9992C238.897 11.9992 238.424 12.0946 238.017 12.2852C237.61 12.4672 237.267 12.7272 236.99 13.0652C236.721 13.4032 236.518 13.7976 236.379 14.2482C236.24 14.6902 236.171 15.1712 236.171 15.6912C236.171 16.1939 236.24 16.6662 236.379 17.1082C236.518 17.5502 236.726 17.9446 237.003 18.2912C237.289 18.6292 237.64 18.8979 238.056 19.0972C238.472 19.2879 238.957 19.3832 239.512 19.3832C240.301 19.3832 240.964 19.1882 241.501 18.7982C242.038 18.3996 242.368 17.8319 242.489 17.0952H243.919C243.841 17.7539 243.62 18.3562 243.256 18.9022C242.901 19.4396 242.411 19.8729 241.787 20.2022C241.163 20.5229 240.405 20.6832 239.512 20.6832ZM249.079 20.6832C248.281 20.6832 247.601 20.5532 247.038 20.2932C246.474 20.0332 246.045 19.6736 245.751 19.2142C245.456 18.7462 245.309 18.2176 245.309 17.6282H246.713C246.713 17.9142 246.786 18.1959 246.934 18.4732C247.081 18.7419 247.328 18.9672 247.675 19.1492C248.021 19.3226 248.489 19.4092 249.079 19.4092C249.625 19.4092 250.071 19.3312 250.418 19.1752C250.764 19.0192 251.02 18.8112 251.185 18.5512C251.358 18.2912 251.445 18.0052 251.445 17.6932C251.445 17.3206 251.28 17.0129 250.951 16.7702C250.63 16.5276 250.149 16.3759 249.508 16.3152L248.507 16.2372C247.649 16.1592 246.964 15.8906 246.453 15.4312C245.941 14.9719 245.686 14.3652 245.686 13.6112C245.686 13.0306 245.824 12.5236 246.102 12.0902C246.388 11.6482 246.782 11.3059 247.285 11.0632C247.796 10.8206 248.39 10.6992 249.066 10.6992C249.733 10.6992 250.322 10.8206 250.834 11.0632C251.345 11.3059 251.739 11.6482 252.017 12.0902C252.303 12.5322 252.446 13.0566 252.446 13.6632H251.029C251.029 13.3772 250.959 13.1086 250.821 12.8572C250.691 12.5972 250.478 12.3849 250.184 12.2202C249.898 12.0556 249.525 11.9732 249.066 11.9732C248.624 11.9732 248.255 12.0512 247.961 12.2072C247.666 12.3546 247.445 12.5539 247.298 12.8052C247.159 13.0566 247.09 13.3252 247.09 13.6112C247.09 13.9492 247.215 14.2482 247.467 14.5082C247.727 14.7596 248.112 14.9069 248.624 14.9502L249.625 15.0282C250.283 15.0889 250.851 15.2319 251.328 15.4572C251.813 15.6739 252.186 15.9729 252.446 16.3542C252.714 16.7269 252.849 17.1732 252.849 17.6932C252.849 18.2826 252.693 18.8026 252.381 19.2532C252.069 19.7039 251.627 20.0549 251.055 20.3062C250.491 20.5576 249.833 20.6832 249.079 20.6832Z" fill="#6B63FF"/>
</svg>
